<svg xmlns="http://www.w3.org/2000/svg" width="1000" height="1000"><path fill="currentColor" d="M112 861c11 34 31 55 72 76 48 23 92 33 152 32 87 0 139-23 167-75 29-53 18-105-43-204-26-42-27-46-23-82 7-74 8-71-9-70-13 0-21 9-41 46-30 54-48 75-95 110-41 32-52 35-18 5 59-52 104-140 145-281l21-75-32-33c-27-27-30-32-17-28 20 5 50 5 60-1 9-6 7-41-4-63-13-23-9-24 18-4 48 35 96 32 129-8l20-25v25c1 54 33 96 129 165 51 37 64 44 85 43 54-2 57-34 12-127-14-31-35-81-45-111-26-79-48-116-72-125-11-3-41-6-67-6s-93-4-149-9c-139-12-208-4-248 30-10 8-40 59-69 117-57 115-57 114-124 217C6 492-3 517 1 580c5 82 44 145 116 184l20 11-38-3c1 31 4 60 13 89Zm444-391c1 22 8 37 22 50 21 21 24 22 86 12 23-4 85-10 138-14 105-8 163-24 180-51 33-51 19-122-29-147-18-10-74-10-74 0l7 34c9 36 1 60-27 75-31 16-69 10-117-20-31-18-50-25-77-27-57-4-104 23-108 63l-1 25Zm31 307c1 15 4 32 10 45 12 22 49 45 90 56 40 12 129 7 156-8 53-28 76-97 45-133l-16-17-132 7c-92 5-136 10-143 16-6 5-10 19-10 34Zm-8-138c1 31 17 49 51 55l32 6c4 1 53 2 109 0 93-2 104-4 134-19 39-20 49-38 49-88-1-67-25-75-163-52-35 5-84 10-107 11-24 0-50 4-59 9a98 98 0 0 0-46 78Zm232-477c0 12 33 99 49 127 10 19 49 10 72-16 43-48 3-140-60-140-35 1-61 13-61 29Z"/></svg>
