<svg xmlns="http://www.w3.org/2000/svg" width="1000" height="1000"><path fill="currentColor" d="M26 0v1000h541c133 0 234-24 303-73 70-48 104-116 104-203 0-58-15-107-45-148-29-42-71-74-126-96l-8-2a237 237 0 0 0 39-404C771 25 673 0 540 0Zm367 39 42 2c25 3 55 4 67 4s25 1 30 3c11 4 21 20 33 56 4 14 14 37 20 51 21 42 19 56-5 57-10 0-16-3-39-19-43-32-58-51-58-75v-11l-9 11c-15 18-37 20-58 4-13-10-15-9-9 1 5 10 6 26 2 29s-18 3-27 0c-6-2-5 1 7 13l15 15-9 34c-19 64-39 103-66 127-16 13-10 12 8-2 21-16 30-26 43-50 9-17 13-21 19-21 7 0 7-2 4 32-2 16-2 18 10 37 28 45 33 68 19 92-12 23-35 34-75 34-27 0-47-4-69-15-18-9-28-19-32-34-4-13-6-26-6-40l17 1-9-5a97 97 0 0 1-53-83c-1-28 3-40 30-82 30-46 30-45 56-98 13-26 27-49 31-53 14-11 35-16 71-15Zm207 46c28 0 46 41 27 63-11 12-28 16-33 7-7-12-22-51-22-57 0-7 12-13 28-13Zm16 81c8 0 16 1 20 3 22 12 28 44 13 67-7 12-34 20-81 23l-63 6c-27 5-29 5-39-5-6-6-9-13-9-23v-11c2-18 23-30 49-28 12 0 21 4 35 12 22 13 39 16 53 9 12-7 16-18 12-34l-4-16c0-2 7-3 14-3Zm-8 98c23 0 28 8 28 29 1 23-4 31-21 40-14 7-19 7-61 8a591 591 0 0 1-64-2c-15-3-23-11-23-25 0-13 10-30 21-36 4-2 16-4 26-4 11 0 33-2 49-5 19-3 34-5 45-5Zm-8 86 7 8c14 16 3 47-21 60-12 7-52 9-70 4-19-5-35-15-41-26-3-5-4-13-4-20s1-13 4-15c3-3 23-5 65-8Zm-35 113c41 1 62 13 77 41 34 62 60 103 90 144 18 25 35 51 38 58 7 21 5 59-4 82a98 98 0 0 1-41 52c-16 10-16 10-6 10 4 17 7 30 3 48-7 27-32 46-75 58-22 6-69 7-89 2a67 67 0 0 1-51-70c0-19 2-25 19-59 21-41 23-48 15-71-7-21-7-25 3-25 7 0 12 5 24 24 18 28 41 52 59 61l14 7-25-27c-30-31-49-66-71-131l-12-36 16-17c18-20 19-23 9-18-9 5-29 5-34-1-6-6-6-15 3-31l7-15-8 8c-30 26-56 28-80 5l-9-9-1 15c-1 29-14 45-79 100-15 13-28 16-42 11-6-3-10-6-11-12-2-10 3-27 18-62 6-16 15-42 19-58 16-60 22-65 74-69l79-9c29-4 52-6 71-6Zm-264 68c17 0 29 7 29 16 0 4-5 22-12 40-10 29-13 34-20 34-16 2-37-15-40-33l-1-10c2-23 22-47 44-47Zm-20 98h18l-3 18c-3 22 2 37 16 42 17 8 38 3 62-14 19-12 25-15 43-16 38-2 58 12 58 43 0 11-3 19-8 26-7 9-9 10-33 10l-88-3c-51-2-64-4-77-10-20-9-27-16-31-33l-2-14c0-14 6-27 16-38 9-9 13-11 29-11Zm23 114 32 2 72 5c36 0 43 3 54 25 14 27 6 42-27 50-24 6-106 9-124 5-21-5-31-11-37-19a71 71 0 0 1-7-47c3-15 11-21 37-21Zm13 101h70c65 1 70 1 76 8 5 5 6 10 4 23-2 22-21 40-49 48-65 18-113 0-117-46l-1-8c0-7 2-11 8-16Z"/></svg>
